<?xml version="1.0" encoding="UTF-8" standalone="no"?>
<!DOCTYPE svg PUBLIC "-//W3C//DTD SVG 1.1//EN"
 "http://www.w3.org/Graphics/SVG/1.1/DTD/svg11.dtd">
<!-- Generated by graphviz version 12.2.0 (20241103.1931)
 -->
<!-- Pages: 1 -->
<svg width="1420pt" height="404pt"
 viewBox="0.00 0.00 1420.00 404.00" xmlns="http://www.w3.org/2000/svg" xmlns:xlink="http://www.w3.org/1999/xlink">
<g id="graph0" class="graph" transform="scale(1 1) rotate(0) translate(4 400)">
<polygon fill="white" stroke="none" points="-4,4 -4,-400 1416,-400 1416,4 -4,4"/>
<!-- 24 -->
<g id="node1" class="node">
<title>24</title>
<ellipse fill="none" stroke="black" cx="365" cy="-90" rx="27" ry="18"/>
<text text-anchor="middle" x="365" y="-84.95" font-family="Times,serif" font-size="14.00">24</text>
</g>
<!-- 16 -->
<g id="node2" class="node">
<title>16</title>
<ellipse fill="none" stroke="black" cx="864" cy="-18" rx="27" ry="18"/>
<text text-anchor="middle" x="864" y="-12.95" font-family="Times,serif" font-size="14.00">16</text>
</g>
<!-- 35 -->
<g id="node3" class="node">
<title>35</title>
<ellipse fill="none" stroke="black" cx="180" cy="-18" rx="27" ry="18"/>
<text text-anchor="middle" x="180" y="-12.95" font-family="Times,serif" font-size="14.00">35</text>
</g>
<!-- 26 -->
<g id="node4" class="node">
<title>26</title>
<ellipse fill="none" stroke="black" cx="71" cy="-378" rx="27" ry="18"/>
<text text-anchor="middle" x="71" y="-372.95" font-family="Times,serif" font-size="14.00">26</text>
</g>
<!-- 21 -->
<g id="node5" class="node">
<title>21</title>
<ellipse fill="none" stroke="black" cx="204" cy="-162" rx="27" ry="18"/>
<text text-anchor="middle" x="204" y="-156.95" font-family="Times,serif" font-size="14.00">21</text>
</g>
<!-- 26&#45;&gt;21 -->
<g id="edge1" class="edge">
<title>26&#45;&gt;21</title>
<path fill="none" stroke="black" d="M81,-360.92C103.92,-324.03 160.42,-233.12 188.14,-188.51"/>
<polygon fill="black" stroke="black" points="190.96,-190.61 193.27,-180.27 185.02,-186.91 190.96,-190.61"/>
</g>
<!-- 69 -->
<g id="node6" class="node">
<title>69</title>
<ellipse fill="none" stroke="black" cx="37" cy="-90" rx="27" ry="18"/>
<text text-anchor="middle" x="37" y="-84.95" font-family="Times,serif" font-size="14.00">69</text>
</g>
<!-- 26&#45;&gt;69 -->
<g id="edge2" class="edge">
<title>26&#45;&gt;69</title>
<path fill="none" stroke="black" d="M68.97,-359.97C63.34,-312.59 47.45,-178.87 40.42,-119.73"/>
<polygon fill="black" stroke="black" points="43.89,-119.33 39.24,-109.81 36.94,-120.15 43.89,-119.33"/>
</g>
<!-- 69&#45;&gt;35 -->
<g id="edge33" class="edge">
<title>69&#45;&gt;35</title>
<path fill="none" stroke="black" d="M58.41,-78.52C82.35,-66.8 121.33,-47.72 148.69,-34.32"/>
<polygon fill="black" stroke="black" points="150.11,-37.53 157.55,-29.99 147.03,-31.24 150.11,-37.53"/>
</g>
<!-- 95 -->
<g id="node8" class="node">
<title>95</title>
<ellipse fill="none" stroke="black" cx="27" cy="-18" rx="27" ry="18"/>
<text text-anchor="middle" x="27" y="-12.95" font-family="Times,serif" font-size="14.00">95</text>
</g>
<!-- 69&#45;&gt;95 -->
<g id="edge35" class="edge">
<title>69&#45;&gt;95</title>
<path fill="none" stroke="black" d="M34.53,-71.7C33.47,-64.32 32.22,-55.52 31.04,-47.25"/>
<polygon fill="black" stroke="black" points="34.54,-47.01 29.66,-37.6 27.61,-48 34.54,-47.01"/>
</g>
<!-- 75 -->
<g id="node17" class="node">
<title>75</title>
<ellipse fill="none" stroke="black" cx="102" cy="-18" rx="27" ry="18"/>
<text text-anchor="middle" x="102" y="-12.95" font-family="Times,serif" font-size="14.00">75</text>
</g>
<!-- 69&#45;&gt;75 -->
<g id="edge34" class="edge">
<title>69&#45;&gt;75</title>
<path fill="none" stroke="black" d="M50.78,-74.15C59.4,-64.87 70.68,-52.73 80.46,-42.19"/>
<polygon fill="black" stroke="black" points="82.97,-44.64 87.21,-34.93 77.84,-39.88 82.97,-44.64"/>
</g>
<!-- 27 -->
<g id="node7" class="node">
<title>27</title>
<ellipse fill="none" stroke="black" cx="854" cy="-234" rx="27" ry="18"/>
<text text-anchor="middle" x="854" y="-228.95" font-family="Times,serif" font-size="14.00">27</text>
</g>
<!-- 65 -->
<g id="node9" class="node">
<title>65</title>
<ellipse fill="none" stroke="black" cx="144" cy="-378" rx="27" ry="18"/>
<text text-anchor="middle" x="144" y="-372.95" font-family="Times,serif" font-size="14.00">65</text>
</g>
<!-- 65&#45;&gt;69 -->
<g id="edge4" class="edge">
<title>65&#45;&gt;69</title>
<path fill="none" stroke="black" d="M138.07,-359.95C124.56,-321.32 90.27,-224.24 59,-144 55.72,-135.58 52,-126.46 48.56,-118.21"/>
<polygon fill="black" stroke="black" points="51.81,-116.9 44.71,-109.03 45.35,-119.6 51.81,-116.9"/>
</g>
<!-- 59 -->
<g id="node10" class="node">
<title>59</title>
<ellipse fill="none" stroke="black" cx="390" cy="-162" rx="27" ry="18"/>
<text text-anchor="middle" x="390" y="-156.95" font-family="Times,serif" font-size="14.00">59</text>
</g>
<!-- 65&#45;&gt;59 -->
<g id="edge3" class="edge">
<title>65&#45;&gt;59</title>
<path fill="none" stroke="black" d="M159.76,-363.29C201.49,-326.99 315.08,-228.18 365.42,-184.38"/>
<polygon fill="black" stroke="black" points="367.66,-187.07 372.91,-177.87 363.07,-181.79 367.66,-187.07"/>
</g>
<!-- 37 -->
<g id="node11" class="node">
<title>37</title>
<ellipse fill="none" stroke="black" cx="724" cy="-162" rx="27" ry="18"/>
<text text-anchor="middle" x="724" y="-156.95" font-family="Times,serif" font-size="14.00">37</text>
</g>
<!-- 65&#45;&gt;37 -->
<g id="edge5" class="edge">
<title>65&#45;&gt;37</title>
<path fill="none" stroke="black" d="M165.37,-366.41C170.71,-364.05 176.49,-361.74 182,-360 262.72,-334.55 291.12,-357.15 369,-324 445.59,-291.4 445.8,-249.49 522,-216 591.11,-185.62 616.52,-204.27 688,-180 689.55,-179.47 691.13,-178.9 692.71,-178.28"/>
<polygon fill="black" stroke="black" points="693.8,-181.63 701.62,-174.48 691.05,-175.19 693.8,-181.63"/>
</g>
<!-- 11 -->
<g id="node12" class="node">
<title>11</title>
<ellipse fill="none" stroke="black" cx="277" cy="-162" rx="27" ry="18"/>
<text text-anchor="middle" x="277" y="-156.95" font-family="Times,serif" font-size="14.00">11</text>
</g>
<!-- 65&#45;&gt;11 -->
<g id="edge6" class="edge">
<title>65&#45;&gt;11</title>
<path fill="none" stroke="black" d="M154,-360.92C176.92,-324.03 233.42,-233.12 261.14,-188.51"/>
<polygon fill="black" stroke="black" points="263.96,-190.61 266.27,-180.27 258.02,-186.91 263.96,-190.61"/>
</g>
<!-- 73 -->
<g id="node13" class="node">
<title>73</title>
<ellipse fill="none" stroke="black" cx="522" cy="-18" rx="27" ry="18"/>
<text text-anchor="middle" x="522" y="-12.95" font-family="Times,serif" font-size="14.00">73</text>
</g>
<!-- 65&#45;&gt;73 -->
<g id="edge7" class="edge">
<title>65&#45;&gt;73</title>
<path fill="none" stroke="black" d="M165.22,-366.64C185.09,-356.62 215.34,-340.56 240,-324 303.5,-281.35 311.04,-259.44 374,-216 400.07,-198.01 466.98,-154.09 497,-144 561.07,-122.48 754.13,-158.54 799,-108 809.62,-96.04 809.2,-84.33 799,-72 783.85,-53.68 632.3,-32.66 560,-23.57"/>
<polygon fill="black" stroke="black" points="560.55,-20.12 550.2,-22.36 559.69,-27.06 560.55,-20.12"/>
</g>
<!-- 86 -->
<g id="node14" class="node">
<title>86</title>
<ellipse fill="none" stroke="black" cx="562" cy="-306" rx="27" ry="18"/>
<text text-anchor="middle" x="562" y="-300.95" font-family="Times,serif" font-size="14.00">86</text>
</g>
<!-- 65&#45;&gt;86 -->
<g id="edge8" class="edge">
<title>65&#45;&gt;86</title>
<path fill="none" stroke="black" d="M164.87,-366.25C170.32,-363.84 176.28,-361.54 182,-360 329.59,-320.3 376.41,-363.7 524,-324 526.15,-323.42 528.32,-322.74 530.5,-321.98"/>
<polygon fill="black" stroke="black" points="531.73,-325.26 539.72,-318.31 529.14,-318.76 531.73,-325.26"/>
</g>
<!-- 59&#45;&gt;73 -->
<g id="edge42" class="edge">
<title>59&#45;&gt;73</title>
<path fill="none" stroke="black" d="M411.77,-150.77C417.88,-148.23 424.61,-145.74 431,-144 486.86,-128.79 651,-151.67 689,-108 729.62,-61.32 620.06,-35.15 559.32,-24.58"/>
<polygon fill="black" stroke="black" points="560.17,-21.17 549.73,-22.98 559.02,-28.08 560.17,-21.17"/>
</g>
<!-- 94 -->
<g id="node16" class="node">
<title>94</title>
<ellipse fill="none" stroke="black" cx="509" cy="-90" rx="27" ry="18"/>
<text text-anchor="middle" x="509" y="-84.95" font-family="Times,serif" font-size="14.00">94</text>
</g>
<!-- 59&#45;&gt;94 -->
<g id="edge44" class="edge">
<title>59&#45;&gt;94</title>
<path fill="none" stroke="black" d="M409.92,-149.28C429,-138.06 458.01,-120.99 479.72,-108.23"/>
<polygon fill="black" stroke="black" points="481.26,-111.38 488.11,-103.29 477.71,-105.34 481.26,-111.38"/>
</g>
<!-- 58 -->
<g id="node35" class="node">
<title>58</title>
<ellipse fill="none" stroke="black" cx="581" cy="-90" rx="27" ry="18"/>
<text text-anchor="middle" x="581" y="-84.95" font-family="Times,serif" font-size="14.00">58</text>
</g>
<!-- 59&#45;&gt;58 -->
<g id="edge41" class="edge">
<title>59&#45;&gt;58</title>
<path fill="none" stroke="black" d="M412.42,-151.29C418.41,-148.81 424.92,-146.22 431,-144 480.92,-125.81 495.53,-127.39 545,-108 546.53,-107.4 548.08,-106.77 549.65,-106.11"/>
<polygon fill="black" stroke="black" points="550.79,-109.43 558.51,-102.17 547.95,-103.03 550.79,-109.43"/>
</g>
<!-- 87 -->
<g id="node36" class="node">
<title>87</title>
<ellipse fill="none" stroke="black" cx="653" cy="-90" rx="27" ry="18"/>
<text text-anchor="middle" x="653" y="-84.95" font-family="Times,serif" font-size="14.00">87</text>
</g>
<!-- 59&#45;&gt;87 -->
<g id="edge43" class="edge">
<title>59&#45;&gt;87</title>
<path fill="none" stroke="black" d="M411.83,-150.99C417.94,-148.45 424.65,-145.91 431,-144 511.63,-119.75 536.97,-134.18 617,-108 618.56,-107.49 620.14,-106.93 621.72,-106.33"/>
<polygon fill="black" stroke="black" points="622.79,-109.68 630.65,-102.56 620.07,-103.23 622.79,-109.68"/>
</g>
<!-- 11&#45;&gt;24 -->
<g id="edge15" class="edge">
<title>11&#45;&gt;24</title>
<path fill="none" stroke="black" d="M293.97,-147.5C306.87,-137.24 324.84,-122.94 339.48,-111.3"/>
<polygon fill="black" stroke="black" points="341.25,-114.36 346.9,-105.4 336.9,-108.88 341.25,-114.36"/>
</g>
<!-- 11&#45;&gt;35 -->
<g id="edge11" class="edge">
<title>11&#45;&gt;35</title>
<path fill="none" stroke="black" d="M259.18,-147.99C246.66,-138.12 230.2,-123.63 219,-108 205.64,-89.35 195.47,-65.4 188.87,-47.04"/>
<polygon fill="black" stroke="black" points="192.18,-45.92 185.63,-37.6 185.56,-48.19 192.18,-45.92"/>
</g>
<!-- 39 -->
<g id="node15" class="node">
<title>39</title>
<ellipse fill="none" stroke="black" cx="763" cy="-90" rx="27" ry="18"/>
<text text-anchor="middle" x="763" y="-84.95" font-family="Times,serif" font-size="14.00">39</text>
</g>
<!-- 11&#45;&gt;39 -->
<g id="edge14" class="edge">
<title>11&#45;&gt;39</title>
<path fill="none" stroke="black" d="M302.18,-154.7C317.16,-151.15 336.57,-146.85 354,-144 501.78,-119.82 541.32,-132.81 689,-108 701.51,-105.9 715.07,-102.97 727.13,-100.14"/>
<polygon fill="black" stroke="black" points="727.77,-103.59 736.67,-97.84 726.13,-96.78 727.77,-103.59"/>
</g>
<!-- 11&#45;&gt;94 -->
<g id="edge12" class="edge">
<title>11&#45;&gt;94</title>
<path fill="none" stroke="black" d="M302.51,-155.62C340.34,-147.31 413.29,-129.97 473,-108 474.54,-107.43 476.11,-106.82 477.68,-106.19"/>
<polygon fill="black" stroke="black" points="478.8,-109.52 486.56,-102.31 475.99,-103.1 478.8,-109.52"/>
</g>
<!-- 11&#45;&gt;75 -->
<g id="edge9" class="edge">
<title>11&#45;&gt;75</title>
<path fill="none" stroke="black" d="M257.07,-149.57C240,-139.46 215.08,-123.87 195,-108 168.96,-87.43 141.84,-60.78 123.65,-42.02"/>
<polygon fill="black" stroke="black" points="126.22,-39.65 116.77,-34.85 121.17,-44.49 126.22,-39.65"/>
</g>
<!-- 81 -->
<g id="node18" class="node">
<title>81</title>
<ellipse fill="none" stroke="black" cx="437" cy="-90" rx="27" ry="18"/>
<text text-anchor="middle" x="437" y="-84.95" font-family="Times,serif" font-size="14.00">81</text>
</g>
<!-- 11&#45;&gt;81 -->
<g id="edge10" class="edge">
<title>11&#45;&gt;81</title>
<path fill="none" stroke="black" d="M299.51,-151.68C324.44,-141.28 365.77,-123.84 401,-108 402.31,-107.41 403.65,-106.8 405,-106.19"/>
<polygon fill="black" stroke="black" points="406.39,-109.4 413.99,-102.02 403.44,-103.05 406.39,-109.4"/>
</g>
<!-- 97 -->
<g id="node19" class="node">
<title>97</title>
<ellipse fill="none" stroke="black" cx="255" cy="-90" rx="27" ry="18"/>
<text text-anchor="middle" x="255" y="-84.95" font-family="Times,serif" font-size="14.00">97</text>
</g>
<!-- 11&#45;&gt;97 -->
<g id="edge13" class="edge">
<title>11&#45;&gt;97</title>
<path fill="none" stroke="black" d="M271.67,-144.05C269.27,-136.4 266.37,-127.16 263.66,-118.56"/>
<polygon fill="black" stroke="black" points="267.07,-117.72 260.73,-109.23 260.39,-119.82 267.07,-117.72"/>
</g>
<!-- 15 -->
<g id="node20" class="node">
<title>15</title>
<ellipse fill="none" stroke="black" cx="264" cy="-18" rx="27" ry="18"/>
<text text-anchor="middle" x="264" y="-12.95" font-family="Times,serif" font-size="14.00">15</text>
</g>
<!-- 11&#45;&gt;15 -->
<g id="edge16" class="edge">
<title>11&#45;&gt;15</title>
<path fill="none" stroke="black" d="M283.56,-144.11C289.65,-126.09 296.95,-96.79 291,-72 288.76,-62.68 284.6,-53.15 280.2,-44.79"/>
<polygon fill="black" stroke="black" points="283.34,-43.23 275.37,-36.25 277.24,-46.67 283.34,-43.23"/>
</g>
<!-- 66 -->
<g id="node21" class="node">
<title>66</title>
<ellipse fill="none" stroke="black" cx="725" cy="-18" rx="27" ry="18"/>
<text text-anchor="middle" x="725" y="-12.95" font-family="Times,serif" font-size="14.00">66</text>
</g>
<!-- 53 -->
<g id="node22" class="node">
<title>53</title>
<ellipse fill="none" stroke="black" cx="1157" cy="-18" rx="27" ry="18"/>
<text text-anchor="middle" x="1157" y="-12.95" font-family="Times,serif" font-size="14.00">53</text>
</g>
<!-- 91 -->
<g id="node23" class="node">
<title>91</title>
<ellipse fill="none" stroke="black" cx="1285" cy="-18" rx="27" ry="18"/>
<text text-anchor="middle" x="1285" y="-12.95" font-family="Times,serif" font-size="14.00">91</text>
</g>
<!-- 57 -->
<g id="node24" class="node">
<title>57</title>
<ellipse fill="none" stroke="black" cx="986" cy="-162" rx="27" ry="18"/>
<text text-anchor="middle" x="986" y="-156.95" font-family="Times,serif" font-size="14.00">57</text>
</g>
<!-- 72 -->
<g id="node25" class="node">
<title>72</title>
<ellipse fill="none" stroke="black" cx="410" cy="-234" rx="27" ry="18"/>
<text text-anchor="middle" x="410" y="-228.95" font-family="Times,serif" font-size="14.00">72</text>
</g>
<!-- 72&#45;&gt;16 -->
<g id="edge22" class="edge">
<title>72&#45;&gt;16</title>
<path fill="none" stroke="black" d="M432.42,-223.66C467.1,-209.19 530.28,-182.72 535,-180 558.11,-166.7 558.32,-154.11 583,-144 638.4,-121.31 807.2,-149.87 850,-108 865.74,-92.6 868.4,-67.22 867.61,-47.5"/>
<polygon fill="black" stroke="black" points="871.11,-47.31 866.87,-37.6 864.13,-47.83 871.11,-47.31"/>
</g>
<!-- 72&#45;&gt;21 -->
<g id="edge24" class="edge">
<title>72&#45;&gt;21</title>
<path fill="none" stroke="black" d="M385.32,-226.32C352.1,-217.1 291.37,-199.38 241,-180 239.23,-179.32 237.43,-178.59 235.61,-177.84"/>
<polygon fill="black" stroke="black" points="237.28,-174.75 226.71,-173.96 234.48,-181.17 237.28,-174.75"/>
</g>
<!-- 72&#45;&gt;59 -->
<g id="edge19" class="edge">
<title>72&#45;&gt;59</title>
<path fill="none" stroke="black" d="M405.16,-216.05C403,-208.49 400.39,-199.37 397.96,-190.85"/>
<polygon fill="black" stroke="black" points="401.33,-189.9 395.21,-181.24 394.59,-191.82 401.33,-189.9"/>
</g>
<!-- 72&#45;&gt;37 -->
<g id="edge20" class="edge">
<title>72&#45;&gt;37</title>
<path fill="none" stroke="black" d="M431.78,-222.82C437.9,-220.28 444.62,-217.78 451,-216 553.63,-187.39 586.09,-211.07 688,-180 689.61,-179.51 691.24,-178.96 692.87,-178.36"/>
<polygon fill="black" stroke="black" points="694.19,-181.61 702.07,-174.53 691.49,-175.14 694.19,-181.61"/>
</g>
<!-- 72&#45;&gt;11 -->
<g id="edge17" class="edge">
<title>72&#45;&gt;11</title>
<path fill="none" stroke="black" d="M389.22,-222.06C367.36,-210.56 332.71,-192.32 307.7,-179.16"/>
<polygon fill="black" stroke="black" points="309.45,-176.13 298.97,-174.57 306.19,-182.32 309.45,-176.13"/>
</g>
<!-- 72&#45;&gt;39 -->
<g id="edge25" class="edge">
<title>72&#45;&gt;39</title>
<path fill="none" stroke="black" d="M421.94,-217.59C438.63,-197.23 470.96,-161.87 507,-144 587.92,-103.88 619.19,-129.15 707,-108 713.92,-106.33 721.24,-104.31 728.23,-102.24"/>
<polygon fill="black" stroke="black" points="729.2,-105.61 737.74,-99.34 727.15,-98.91 729.2,-105.61"/>
</g>
<!-- 72&#45;&gt;66 -->
<g id="edge23" class="edge">
<title>72&#45;&gt;66</title>
<path fill="none" stroke="black" d="M430.04,-221.53C447.9,-211.14 474.6,-195.17 497,-180 519.08,-165.05 520.28,-153.99 545,-144 604.59,-119.91 789.47,-156.2 832,-108 842.59,-96 840.44,-85.59 832,-72 816.81,-47.52 786.57,-34 762.11,-26.75"/>
<polygon fill="black" stroke="black" points="763.03,-23.38 752.46,-24.16 761.21,-30.13 763.03,-23.38"/>
</g>
<!-- 49 -->
<g id="node26" class="node">
<title>49</title>
<ellipse fill="none" stroke="black" cx="652" cy="-162" rx="27" ry="18"/>
<text text-anchor="middle" x="652" y="-156.95" font-family="Times,serif" font-size="14.00">49</text>
</g>
<!-- 72&#45;&gt;49 -->
<g id="edge18" class="edge">
<title>72&#45;&gt;49</title>
<path fill="none" stroke="black" d="M431.87,-223.12C437.98,-220.58 444.68,-218 451,-216 520.48,-193.96 541.52,-202.04 611,-180 613.76,-179.12 616.6,-178.14 619.43,-177.09"/>
<polygon fill="black" stroke="black" points="620.7,-180.36 628.72,-173.44 618.13,-173.84 620.7,-180.36"/>
</g>
<!-- 31 -->
<g id="node27" class="node">
<title>31</title>
<ellipse fill="none" stroke="black" cx="972" cy="-18" rx="27" ry="18"/>
<text text-anchor="middle" x="972" y="-12.95" font-family="Times,serif" font-size="14.00">31</text>
</g>
<!-- 72&#45;&gt;31 -->
<g id="edge21" class="edge">
<title>72&#45;&gt;31</title>
<path fill="none" stroke="black" d="M431.96,-223.39C438.08,-220.85 444.75,-218.21 451,-216 504.3,-197.15 523.17,-206.7 573,-180 594.97,-168.23 593.23,-154.13 616,-144 720.99,-97.32 767.73,-156.26 872,-108 904.52,-92.95 934.14,-63.74 952.56,-42.89"/>
<polygon fill="black" stroke="black" points="955.13,-45.27 958.99,-35.41 949.82,-40.71 955.13,-45.27"/>
</g>
<!-- 49&#45;&gt;16 -->
<g id="edge31" class="edge">
<title>49&#45;&gt;16</title>
<path fill="none" stroke="black" d="M672.52,-150.01C677.47,-147.72 682.83,-145.54 688,-144 743.47,-127.45 908,-151.67 946,-108 956.5,-95.93 953.65,-86.05 946,-72 935.77,-53.21 915.69,-40.06 897.97,-31.56"/>
<polygon fill="black" stroke="black" points="899.84,-28.56 889.28,-27.7 896.99,-34.96 899.84,-28.56"/>
</g>
<!-- 49&#45;&gt;69 -->
<g id="edge29" class="edge">
<title>49&#45;&gt;69</title>
<path fill="none" stroke="black" d="M625.18,-157.95C527.27,-146.8 188.89,-108.29 74.86,-95.31"/>
<polygon fill="black" stroke="black" points="75.45,-91.85 65.12,-94.2 74.66,-98.81 75.45,-91.85"/>
</g>
<!-- 49&#45;&gt;66 -->
<g id="edge30" class="edge">
<title>49&#45;&gt;66</title>
<path fill="none" stroke="black" d="M672.97,-150.04C677.81,-147.81 683.01,-145.64 688,-144 766.32,-118.2 817.66,-171.71 870,-108 904.33,-66.22 815.41,-38.68 761.96,-26.38"/>
<polygon fill="black" stroke="black" points="762.83,-22.99 752.31,-24.25 761.32,-29.82 762.83,-22.99"/>
</g>
<!-- 49&#45;&gt;31 -->
<g id="edge32" class="edge">
<title>49&#45;&gt;31</title>
<path fill="none" stroke="black" d="M672.45,-149.77C677.41,-147.49 682.79,-145.37 688,-144 740.04,-130.28 1134.39,-147.44 1171,-108 1221,-54.14 1080.64,-30.78 1009.95,-22.64"/>
<polygon fill="black" stroke="black" points="1010.66,-19.2 1000.34,-21.58 1009.89,-26.15 1010.66,-19.2"/>
</g>
<!-- 29 -->
<g id="node28" class="node">
<title>29</title>
<ellipse fill="none" stroke="black" cx="1245" cy="-90" rx="27" ry="18"/>
<text text-anchor="middle" x="1245" y="-84.95" font-family="Times,serif" font-size="14.00">29</text>
</g>
<!-- 49&#45;&gt;29 -->
<g id="edge26" class="edge">
<title>49&#45;&gt;29</title>
<path fill="none" stroke="black" d="M672.44,-149.75C677.4,-147.47 682.78,-145.36 688,-144 910.43,-85.92 980.23,-160.71 1204,-108 1206.99,-107.3 1210.04,-106.4 1213.07,-105.38"/>
<polygon fill="black" stroke="black" points="1214.2,-108.7 1222.32,-101.88 1211.72,-102.15 1214.2,-108.7"/>
</g>
<!-- 13 -->
<g id="node29" class="node">
<title>13</title>
<ellipse fill="none" stroke="black" cx="1063" cy="-90" rx="27" ry="18"/>
<text text-anchor="middle" x="1063" y="-84.95" font-family="Times,serif" font-size="14.00">13</text>
</g>
<!-- 49&#45;&gt;13 -->
<g id="edge27" class="edge">
<title>49&#45;&gt;13</title>
<path fill="none" stroke="black" d="M672.48,-149.89C677.44,-147.61 682.81,-145.46 688,-144 831.72,-103.56 877.35,-144.97 1022,-108 1024.98,-107.24 1028.02,-106.3 1031.04,-105.26"/>
<polygon fill="black" stroke="black" points="1032.19,-108.57 1040.28,-101.73 1029.69,-102.03 1032.19,-108.57"/>
</g>
<!-- 71 -->
<g id="node30" class="node">
<title>71</title>
<ellipse fill="none" stroke="black" cx="1135" cy="-90" rx="27" ry="18"/>
<text text-anchor="middle" x="1135" y="-84.95" font-family="Times,serif" font-size="14.00">71</text>
</g>
<!-- 49&#45;&gt;71 -->
<g id="edge28" class="edge">
<title>49&#45;&gt;71</title>
<path fill="none" stroke="black" d="M672.46,-149.82C677.42,-147.54 682.8,-145.41 688,-144 865,-96.1 922,-155.9 1099,-108 1100.63,-107.56 1102.27,-107.05 1103.91,-106.49"/>
<polygon fill="black" stroke="black" points="1105.18,-109.75 1113.13,-102.75 1102.55,-103.26 1105.18,-109.75"/>
</g>
<!-- 82 -->
<g id="node31" class="node">
<title>82</title>
<ellipse fill="none" stroke="black" cx="488" cy="-306" rx="27" ry="18"/>
<text text-anchor="middle" x="488" y="-300.95" font-family="Times,serif" font-size="14.00">82</text>
</g>
<!-- 82&#45;&gt;91 -->
<g id="edge37" class="edge">
<title>82&#45;&gt;91</title>
<path fill="none" stroke="black" d="M509.38,-294.44C514.72,-292.09 520.49,-289.76 526,-288 602.86,-263.37 628.93,-281.66 704,-252 789,-218.42 792.08,-172.27 879,-144 929.12,-127.7 1316.17,-146.66 1352,-108 1362.88,-96.26 1358.97,-86.4 1352,-72 1344.46,-56.42 1329.88,-44.04 1316.23,-35.17"/>
<polygon fill="black" stroke="black" points="1318.25,-32.29 1307.88,-30.12 1314.63,-38.28 1318.25,-32.29"/>
</g>
<!-- 82&#45;&gt;72 -->
<g id="edge39" class="edge">
<title>82&#45;&gt;72</title>
<path fill="none" stroke="black" d="M472.59,-291.17C461.55,-281.26 446.47,-267.73 433.88,-256.43"/>
<polygon fill="black" stroke="black" points="436.55,-254.13 426.77,-250.05 431.88,-259.34 436.55,-254.13"/>
</g>
<!-- 82&#45;&gt;49 -->
<g id="edge38" class="edge">
<title>82&#45;&gt;49</title>
<path fill="none" stroke="black" d="M490.39,-287.71C493.98,-267.97 502.54,-235.84 522,-216 551.88,-185.54 571.51,-196.17 611,-180 613.62,-178.93 616.33,-177.81 619.06,-176.69"/>
<polygon fill="black" stroke="black" points="620.16,-180.02 628.06,-172.97 617.48,-173.55 620.16,-180.02"/>
</g>
<!-- 62 -->
<g id="node32" class="node">
<title>62</title>
<ellipse fill="none" stroke="black" cx="558" cy="-234" rx="27" ry="18"/>
<text text-anchor="middle" x="558" y="-228.95" font-family="Times,serif" font-size="14.00">62</text>
</g>
<!-- 82&#45;&gt;62 -->
<g id="edge36" class="edge">
<title>82&#45;&gt;62</title>
<path fill="none" stroke="black" d="M502.5,-290.5C512.08,-280.92 524.81,-268.19 535.66,-257.34"/>
<polygon fill="black" stroke="black" points="537.85,-260.1 542.44,-250.56 532.9,-255.15 537.85,-260.1"/>
</g>
<!-- 99 -->
<g id="node33" class="node">
<title>99</title>
<ellipse fill="none" stroke="black" cx="668" cy="-234" rx="27" ry="18"/>
<text text-anchor="middle" x="668" y="-228.95" font-family="Times,serif" font-size="14.00">99</text>
</g>
<!-- 82&#45;&gt;99 -->
<g id="edge40" class="edge">
<title>82&#45;&gt;99</title>
<path fill="none" stroke="black" d="M509.6,-295.05C514.93,-292.67 520.65,-290.19 526,-288 562.43,-273.07 604.79,-257.48 633.7,-247.11"/>
<polygon fill="black" stroke="black" points="634.79,-250.44 643.03,-243.78 632.44,-243.85 634.79,-250.44"/>
</g>
<!-- 99&#45;&gt;31 -->
<g id="edge63" class="edge">
<title>99&#45;&gt;31</title>
<path fill="none" stroke="black" d="M689.09,-222.21C708.16,-212.14 736.73,-196.26 760,-180 780.43,-165.72 779.91,-153.39 803,-144 901.68,-103.89 1208.56,-186.1 1281,-108 1291.88,-96.27 1291.31,-84.23 1281,-72 1272.26,-61.64 1090.02,-35.31 1009.59,-24.14"/>
<polygon fill="black" stroke="black" points="1010.38,-20.71 999.99,-22.81 1009.42,-27.65 1010.38,-20.71"/>
</g>
<!-- 76 -->
<g id="node34" class="node">
<title>76</title>
<ellipse fill="none" stroke="black" cx="1385" cy="-18" rx="27" ry="18"/>
<text text-anchor="middle" x="1385" y="-12.95" font-family="Times,serif" font-size="14.00">76</text>
</g>
<!-- 18 -->
<g id="node37" class="node">
<title>18</title>
<ellipse fill="none" stroke="black" cx="414" cy="-378" rx="27" ry="18"/>
<text text-anchor="middle" x="414" y="-372.95" font-family="Times,serif" font-size="14.00">18</text>
</g>
<!-- 18&#45;&gt;27 -->
<g id="edge49" class="edge">
<title>18&#45;&gt;27</title>
<path fill="none" stroke="black" d="M441.18,-376.26C542.13,-373.22 891.4,-360.16 924,-324 934.71,-312.12 931.12,-302.33 924,-288 915.95,-271.81 900.33,-259.24 885.88,-250.42"/>
<polygon fill="black" stroke="black" points="887.92,-247.55 877.49,-245.66 884.46,-253.64 887.92,-247.55"/>
</g>
<!-- 18&#45;&gt;37 -->
<g id="edge48" class="edge">
<title>18&#45;&gt;37</title>
<path fill="none" stroke="black" d="M441.37,-376.35C544.74,-373.61 907.19,-361.38 941,-324 976.8,-284.42 900.5,-223.68 890,-216 851.45,-187.79 797.3,-174.21 761.46,-167.95"/>
<polygon fill="black" stroke="black" points="762.43,-164.57 752,-166.41 761.31,-171.48 762.43,-164.57"/>
</g>
<!-- 18&#45;&gt;86 -->
<g id="edge50" class="edge">
<title>18&#45;&gt;86</title>
<path fill="none" stroke="black" d="M435.52,-366.82C460.4,-355.05 501.59,-335.57 530.18,-322.05"/>
<polygon fill="black" stroke="black" points="531.54,-325.28 539.09,-317.84 528.55,-318.95 531.54,-325.28"/>
</g>
<!-- 18&#45;&gt;91 -->
<g id="edge46" class="edge">
<title>18&#45;&gt;91</title>
<path fill="none" stroke="black" d="M441.27,-376.45C546.86,-374.05 924.8,-362.79 960,-324 1013.85,-264.67 895.82,-203.03 950,-144 1013.19,-75.15 1305.81,-176.85 1369,-108 1379.82,-96.21 1376.73,-86.01 1369,-72 1358.42,-52.81 1337.65,-39.62 1319.41,-31.19"/>
<polygon fill="black" stroke="black" points="1321.02,-28.07 1310.45,-27.36 1318.27,-34.51 1321.02,-28.07"/>
</g>
<!-- 18&#45;&gt;57 -->
<g id="edge51" class="edge">
<title>18&#45;&gt;57</title>
<path fill="none" stroke="black" d="M441.33,-376.78C555.77,-375.59 992.47,-368.15 1033,-324 1068.46,-285.38 1030.78,-221.43 1005.31,-186.89"/>
<polygon fill="black" stroke="black" points="1008.28,-185.02 999.44,-179.18 1002.71,-189.26 1008.28,-185.02"/>
</g>
<!-- 14 -->
<g id="node38" class="node">
<title>14</title>
<ellipse fill="none" stroke="black" cx="1112" cy="-306" rx="27" ry="18"/>
<text text-anchor="middle" x="1112" y="-300.95" font-family="Times,serif" font-size="14.00">14</text>
</g>
<!-- 18&#45;&gt;14 -->
<g id="edge45" class="edge">
<title>18&#45;&gt;14</title>
<path fill="none" stroke="black" d="M441.32,-375.93C549.57,-371.53 948.36,-353.59 1071,-324 1073.99,-323.28 1077.04,-322.37 1080.06,-321.35"/>
<polygon fill="black" stroke="black" points="1081.2,-324.66 1089.31,-317.84 1078.71,-318.12 1081.2,-324.66"/>
</g>
<!-- 12 -->
<g id="node39" class="node">
<title>12</title>
<ellipse fill="none" stroke="black" cx="888" cy="-306" rx="27" ry="18"/>
<text text-anchor="middle" x="888" y="-300.95" font-family="Times,serif" font-size="14.00">12</text>
</g>
<!-- 18&#45;&gt;12 -->
<g id="edge47" class="edge">
<title>18&#45;&gt;12</title>
<path fill="none" stroke="black" d="M441.34,-376.22C510.43,-373.69 697.23,-363.43 847,-324 849.8,-323.26 852.67,-322.37 855.52,-321.39"/>
<polygon fill="black" stroke="black" points="856.74,-324.67 864.84,-317.84 854.25,-318.13 856.74,-324.67"/>
</g>
<!-- 17 -->
<g id="node40" class="node">
<title>17</title>
<ellipse fill="none" stroke="black" cx="1184" cy="-306" rx="27" ry="18"/>
<text text-anchor="middle" x="1184" y="-300.95" font-family="Times,serif" font-size="14.00">17</text>
</g>
<!-- 18&#45;&gt;17 -->
<g id="edge52" class="edge">
<title>18&#45;&gt;17</title>
<path fill="none" stroke="black" d="M441.36,-376.37C557.55,-373.48 1010.52,-360.08 1148,-324 1149.63,-323.57 1151.28,-323.07 1152.92,-322.52"/>
<polygon fill="black" stroke="black" points="1154.18,-325.78 1162.15,-318.81 1151.56,-319.29 1154.18,-325.78"/>
</g>
<!-- 67 -->
<g id="node41" class="node">
<title>67</title>
<ellipse fill="none" stroke="black" cx="218" cy="-378" rx="27" ry="18"/>
<text text-anchor="middle" x="218" y="-372.95" font-family="Times,serif" font-size="14.00">67</text>
</g>
<!-- 67&#45;&gt;35 -->
<g id="edge62" class="edge">
<title>67&#45;&gt;35</title>
<path fill="none" stroke="black" d="M212.2,-360.15C200.95,-326.44 176.51,-248.1 168,-180 166.02,-164.12 167.23,-159.98 168,-144 169.59,-110.88 173.52,-72.98 176.46,-47.68"/>
<polygon fill="black" stroke="black" points="179.92,-48.2 177.63,-37.86 172.97,-47.37 179.92,-48.2"/>
</g>
<!-- 67&#45;&gt;27 -->
<g id="edge54" class="edge">
<title>67&#45;&gt;27</title>
<path fill="none" stroke="black" d="M244.6,-374.02C276.33,-370.51 331.01,-364.56 378,-360 469.03,-351.17 708.18,-368.66 788,-324 812.87,-310.08 831.06,-282.46 841.98,-261.66"/>
<polygon fill="black" stroke="black" points="845.03,-263.38 846.34,-252.87 838.76,-260.27 845.03,-263.38"/>
</g>
<!-- 67&#45;&gt;37 -->
<g id="edge60" class="edge">
<title>67&#45;&gt;37</title>
<path fill="none" stroke="black" d="M244.82,-374.05C329.19,-364.68 584.43,-335.48 598,-324 636.42,-291.5 600.49,-255.24 632,-216 640.41,-205.53 669.04,-189.81 692.16,-178.21"/>
<polygon fill="black" stroke="black" points="693.52,-181.44 700.94,-173.87 690.42,-175.16 693.52,-181.44"/>
</g>
<!-- 67&#45;&gt;81 -->
<g id="edge55" class="edge">
<title>67&#45;&gt;81</title>
<path fill="none" stroke="black" d="M228.34,-361.37C235.2,-350.89 244.32,-336.73 252,-324 299.51,-245.27 290.72,-210.71 354,-144 368.62,-128.59 388.59,-115.66 405.28,-106.43"/>
<polygon fill="black" stroke="black" points="406.65,-109.66 413.84,-101.88 403.36,-103.48 406.65,-109.66"/>
</g>
<!-- 67&#45;&gt;53 -->
<g id="edge53" class="edge">
<title>67&#45;&gt;53</title>
<path fill="none" stroke="black" d="M244.72,-374.02C339.05,-363.46 651.39,-328.27 661,-324 775.84,-273.02 761.84,-189.39 879,-144 966.35,-110.16 1235.65,-177.01 1299,-108 1335.02,-68.76 1246.91,-40.13 1193.78,-27"/>
<polygon fill="black" stroke="black" points="1194.72,-23.63 1184.18,-24.71 1193.1,-30.44 1194.72,-23.63"/>
</g>
<!-- 67&#45;&gt;72 -->
<g id="edge56" class="edge">
<title>67&#45;&gt;72</title>
<path fill="none" stroke="black" d="M244.69,-374.01C277.64,-369.03 333.66,-356.16 369,-324 386.69,-307.9 397.32,-282.64 403.3,-263.13"/>
<polygon fill="black" stroke="black" points="406.64,-264.18 405.97,-253.6 399.9,-262.29 406.64,-264.18"/>
</g>
<!-- 67&#45;&gt;82 -->
<g id="edge61" class="edge">
<title>67&#45;&gt;82</title>
<path fill="none" stroke="black" d="M244,-372.33C286.7,-364.36 374.13,-346.75 446,-324 449.09,-323.02 452.28,-321.92 455.45,-320.75"/>
<polygon fill="black" stroke="black" points="456.54,-324.08 464.59,-317.2 454,-317.56 456.54,-324.08"/>
</g>
<!-- 67&#45;&gt;99 -->
<g id="edge59" class="edge">
<title>67&#45;&gt;99</title>
<path fill="none" stroke="black" d="M244.8,-373.97C335.72,-363.65 627.28,-330.13 635,-324 653.36,-309.42 661.51,-283.56 665.12,-263.45"/>
<polygon fill="black" stroke="black" points="668.57,-264.03 666.58,-253.62 661.65,-263 668.57,-264.03"/>
</g>
<!-- 67&#45;&gt;76 -->
<g id="edge57" class="edge">
<title>67&#45;&gt;76</title>
<path fill="none" stroke="black" d="M244.66,-374.15C345.95,-363.31 701.36,-325.22 704,-324 767.34,-294.68 761.56,-257.05 818,-216 872.04,-176.69 886.01,-163.27 950,-144 1039.48,-117.05 1299.94,-170.97 1369,-108 1385.41,-93.04 1388.57,-67.44 1388.11,-47.53"/>
<polygon fill="black" stroke="black" points="1391.62,-47.59 1387.56,-37.81 1384.63,-47.99 1391.62,-47.59"/>
</g>
<!-- 67&#45;&gt;12 -->
<g id="edge58" class="edge">
<title>67&#45;&gt;12</title>
<path fill="none" stroke="black" d="M244.59,-373.93C276.32,-370.33 330.99,-364.3 378,-360 586.19,-340.95 643.68,-372.64 847,-324 849.99,-323.29 853.04,-322.38 856.06,-321.36"/>
<polygon fill="black" stroke="black" points="857.2,-324.67 865.31,-317.85 854.72,-318.13 857.2,-324.67"/>
</g>
</g>
</svg>
